Plot:

King Leonidas and a force of 300 men fight the Persians at Thermopylae in 480 B.C. 

Cast:


Gerard Butler ... King Leonidas

Lena Headey ... Queen Gorgo

Dominic West ... Theron

David Wenham ... Dilios

Vincent Regan ... Captain

Michael Fassbender ... Stelios

Tom Wisdom ... Astinos

Andrew Pleavin ... Daxos

Andrew Tiernan ... Ephialtes

Rodrigo Santoro ... Xerxes

Tyler Neitzel ... Leonidas at 15 yrs

Stephen McHattie ... Loyalist

Greg Kramer ... Ephor #1

Alex Ivanovici ... Ephor #2

Kelly Craig ... Oracle Girl

encoded by bigperm     
http://img441.imageshack.us/img441/5863/547pdk.gif



General:

Complete name : 300 2006 DVDRip BigPerm LKRG300 LKRG.m4v
Format : MPEG-4
Format profile : Base Media / Version 2
Codec ID : mp42
File size : 1.34 GiB
Duration : 1h 56mn
Overall bit rate : 1 646 Kbps

Video:

ID : 1
Format : AVC
Format/Info : Advanced Video Codec
Format profile : Main@L3.0
Format settings, CABAC : Yes
Format settings, ReFrames : 2 frames
Codec ID : avc1
Codec ID/Info : Advanced Video Coding
Duration : 1h 56mn
Bit rate mode : Variable
Bit rate : 1 481 Kbps
Width : 720 pixels
Height : 364 pixels
Display aspect ratio : 2.35:1
Frame rate mode : Variable
Frame rate : 23.976 fps
Minimum frame rate : 14.985 fps
Maximum frame rate : 29.970 fps
Resolution : 8 bits
Colorimetry : 4:2:0
Scan type : Progressive
Bits/(Pixel*Frame) : 0.236
Stream size : 1.21 GiB (90%)
Writing library : x264 core 79

Audio:

ID : 2
Format : AAC
Format/Info : Advanced Audio Codec
Format version : Version 4
Format profile : LC
Format settings, SBR : No
Codec ID : 40
Duration : 1h 56mn
Bit rate mode : Variable
Bit rate : 160 Kbps
Maximum bit rate : 215 Kbps
Channel(s) : 2 channels
Channel positions : Front: L R
Sampling rate : 48.0 KHz
Stream size : 133 MiB (10%)
Language : English